<?xml version="1.0" standalone="no"?>
<!DOCTYPE svg PUBLIC "-//W3C//DTD SVG 20010904//EN"
 "http://www.w3.org/TR/2001/REC-SVG-20010904/DTD/svg10.dtd">
<svg version="1.0" xmlns="http://www.w3.org/2000/svg"
 width="100.000000pt" height="100.000000pt" viewBox="0 0 100.000000 100.000000"
 preserveAspectRatio="xMidYMid meet">
<metadata>
Created by potrace 1.11, written by Peter Selinger 2001-2013
</metadata>
<g transform="translate(0.000000,100.000000) scale(0.100000,-0.100000)"
fill="#000000" stroke="none">
<path d="M787 891 c-44 -17 -53 -25 -90 -92 l-42 -74 -102 -1 c-57 0 -103 3
-103 7 0 15 -53 70 -83 86 -17 8 -52 15 -78 15 -112 0 -190 -109 -156 -219 11
-36 77 -103 102 -103 11 0 15 -12 16 -47 0 -27 2 -57 4 -68 2 -11 7 -35 10
-53 12 -67 72 -149 130 -180 76 -40 204 -47 297 -16 56 18 123 80 148 137 33
74 43 196 22 277 -25 100 -43 118 -144 153 -16 6 -16 10 8 54 32 59 55 79 105
94 27 9 39 18 39 31 0 22 -19 22 -83 -1z"/>
</g>
</svg>
